<?xml version="1.0" standalone="no"?>
<!DOCTYPE svg PUBLIC "-//W3C//DTD SVG 20010904//EN"
 "http://www.w3.org/TR/2001/REC-SVG-20010904/DTD/svg10.dtd">
<svg version="1.0" xmlns="http://www.w3.org/2000/svg"
 width="260.000000pt" height="260.000000pt" viewBox="0 0 260.000000 260.000000"
 preserveAspectRatio="xMidYMid meet">
<metadata>
Created by potrace 1.11, written by Peter Selinger 2001-2013
</metadata>
<g transform="translate(0.000000,260.000000) scale(0.100000,-0.100000)"
fill="#000000" stroke="none">
<path d="M0 1300 l0 -1300 1300 0 1300 0 0 1300 0 1300 -1300 0 -1300 0 0
-1300z m2059 765 c82 -20 171 -67 223 -119 150 -149 154 -470 8 -629 -49 -54
-131 -105 -205 -127 -22 -7 -116 -15 -210 -19 l-170 -6 -3 -267 -2 -268 -95 0
-95 0 0 710 0 709 38 7 c143 27 414 32 511 9z m-1153 -32 c28 -68 172 -504
223 -678 74 -252 191 -686 191 -707 0 -16 -11 -18 -100 -18 -55 0 -100 3 -101
8 0 4 -19 88 -42 187 l-42 180 -272 3 -273 2 -5 -22 c-3 -13 -23 -97 -44 -188
l-38 -165 -96 -3 c-86 -2 -97 -1 -97 15 0 75 261 954 378 1271 l56 152 123 0
123 0 16 -37z"/>
<path d="M1705 1897 c-3 -7 -4 -136 -3 -287 l3 -275 120 0 c202 1 290 37 341
140 24 50 28 69 28 149 0 77 -4 99 -26 147 -29 65 -75 104 -144 125 -63 19
-312 20 -319 1z"/>
<path d="M732 1807 c-37 -103 -140 -427 -175 -549 l-25 -88 228 0 228 0 -30
113 c-36 133 -125 420 -166 531 l-29 79 -31 -86z"/>
</g>
</svg>
